<svg xmlns="http://www.w3.org/2000/svg" width="170" height="48" viewBox="0 0 170 48" role="img" aria-label="Pixora logo">
  <defs>
    <linearGradient id="pixoraMark" x1="6" x2="42" y1="6" y2="42" gradientUnits="userSpaceOnUse">
      <stop stop-color="#ffffff"/>
      <stop offset=".52" stop-color="#d7dce5"/>
      <stop offset="1" stop-color="#9aa3b5"/>
    </linearGradient>
  </defs>
  <rect x="4" y="4" width="40" height="40" rx="12" fill="#f4f6fb"/>
  <path d="M16 35V13h11.2c5 0 8.3 3.1 8.3 7.7s-3.3 7.8-8.3 7.8H22v6.5h-6Zm6-11.7h4.6c1.9 0 3.1-1 3.1-2.6 0-1.6-1.2-2.6-3.1-2.6H22v5.2Z" fill="url(#pixoraMark)"/>
  <path d="M37.5 11.5 41 15l-3.5 3.5L34 15l3.5-3.5Z" fill="#fff"/>
  <path d="M58 35V13h9.2c5.3 0 8.7 3 8.7 7.7 0 4.8-3.4 7.9-8.7 7.9h-4.1V35H58Zm5.1-10.8h3.6c2.5 0 4-1.3 4-3.4 0-2-1.5-3.3-4-3.3h-3.6v6.7Zm17.2 10.8V18.5h4.8V35h-4.8Zm-.2-19.1v-4.4h5.2v4.4h-5.2Zm8.8 19.1 5.8-8.5-5.5-8h5.5l3.1 4.7 3.1-4.7h5.3l-5.5 8 5.9 8.5h-5.6l-3.5-5.2-3.4 5.2h-5.2Zm27.8.3c-5.2 0-8.8-3.5-8.8-8.6s3.6-8.6 8.8-8.6 8.8 3.5 8.8 8.6-3.6 8.6-8.8 8.6Zm0-4.1c2.4 0 4-1.8 4-4.5s-1.6-4.5-4-4.5-4 1.8-4 4.5 1.6 4.5 4 4.5Zm13.5 3.8V18.5h4.6v2.7c1-2 2.8-3.1 5-3.1.4 0 .8 0 1.2.1v4.6c-.6-.1-1.1-.2-1.7-.2-2.7 0-4.3 1.6-4.3 4.5V35h-4.8Zm21.1.3c-3.4 0-5.8-2-5.8-5 0-3.1 2.3-4.9 6.5-5.2l4.2-.3v-.5c0-1.8-1.2-2.9-3.3-2.9-1.9 0-3.1.8-3.4 2.3h-4.4c.4-3.9 3.4-6.4 8.1-6.4 4.9 0 7.8 2.6 7.8 7V35h-4.5v-2.2c-1.1 1.6-3 2.5-5.2 2.5Zm1.5-3.6c2.1 0 3.6-1.3 3.6-3.2v-1.2l-3.4.3c-1.8.2-2.8.9-2.8 2.1s1 2 2.6 2Z" fill="#f4f6fb"/>
</svg>
